<svg width="24" height="14" viewBox="0 0 24 14" fill="none" xmlns="http://www.w3.org/2000/svg">
<path d="M-2.6308e-07 6.99999C-2.39351e-07 7.54285 0.44 7.98285 0.982857 7.98285L19.9086 7.98285L16.5486 11.3429C16.1657 11.7257 16.1657 12.3486 16.5486 12.7314C16.9314 13.1143 17.5543 13.1143 17.9371 12.7314L22.9714 7.69714C23.16 7.50857 23.2571 7.25714 23.2571 7.00571C23.2571 6.75428 23.16 6.50285 22.9714 6.31428L17.9371 1.27999C17.5543 0.897129 16.9314 0.897129 16.5486 1.27999C16.1657 1.66284 16.1657 2.2857 16.5486 2.66856L19.9086 6.02856L0.977143 6.02856C0.434285 6.02285 -2.8681e-07 6.45714 -2.6308e-07 6.99999Z" fill="#3C3F43"/>
</svg>
