<svg width="20" height="19" viewBox="0 0 20 19" fill="none" xmlns="http://www.w3.org/2000/svg">
<path d="M10.0001 0.5C9.57359 0.5 9.22788 0.845714 9.22788 1.27224V12.6424L6.58787 10.0024C6.28706 9.70163 5.79767 9.70163 5.49685 10.0024C5.19604 10.3033 5.19604 10.7927 5.49685 11.0935L9.45237 15.049C9.60053 15.1971 9.79808 15.2735 9.99563 15.2735C10.1932 15.2735 10.3907 15.1971 10.5389 15.049L14.4944 11.0935C14.7952 10.7927 14.7952 10.3033 14.4944 10.0024C14.1936 9.70163 13.7042 9.70163 13.4034 10.0024L10.7634 12.6424V1.26776C10.7679 0.841225 10.4267 0.5 10.0001 0.5Z" fill="white"/>
<path d="M19.7474 18.2322V13.7559C19.7474 13.3294 19.4017 12.9837 18.9751 12.9837C18.5486 12.9837 18.2029 13.3294 18.2029 13.7559V17.4645H1.79269V13.7559C1.79269 13.3294 1.44697 12.9837 1.02493 12.9837C0.60289 12.9837 0.252686 13.3294 0.252686 13.7559V18.2322C0.252686 18.6588 0.5984 19 1.02493 19H18.9751C19.4017 19 19.7474 18.6588 19.7474 18.2322Z" fill="white"/>
</svg>
