<svg width="32" height="30" viewBox="0 0 32 30" fill="none" xmlns="http://www.w3.org/2000/svg">
<path d="M1.28601 11.4651C0.601006 11.7281 0.115006 12.3441 0.0180061 13.0711C-0.0779939 13.7991 0.231006 14.5201 0.824006 14.9511L7.31601 19.6751L30.374 1.53407L9.98501 21.6211L18.86 28.0791C19.424 28.4891 20.153 28.6121 20.824 28.4091C21.494 28.2051 22.028 27.6961 22.268 27.0411L31.762 1.05507C31.858 0.791067 31.79 0.496067 31.59 0.299067C31.391 0.102067 31.096 0.0400666 30.832 0.141067L1.28601 11.4651Z" fill="white"/>
<path d="M5.77393 21.2461L5.82893 21.5471L7.08893 28.4361C7.18293 28.9481 7.52493 29.3771 8.00093 29.5841C8.47693 29.7901 9.02593 29.7461 9.46193 29.4651C11.2169 28.3331 13.5089 26.8311 13.4469 26.7431L5.77393 21.2461Z" fill="white"/>
</svg>
